<mxfile host="app.diagrams.net" modified="2023-11-29T05:36:37.934Z" agent="Mozilla/5.0 (X11; Linux x86_64) AppleWebKit/537.36 (KHTML, like Gecko) Chrome/119.0.0.0 Safari/537.36" etag="vTXXG8AlAaZfdMYoj_LY" version="22.1.4" type="github">
  <diagram name="Page-1" id="p4NCAmTBPJyhIlN6_IWR">
    <mxGraphModel dx="1386" dy="759" grid="1" gridSize="10" guides="1" tooltips="1" connect="1" arrows="1" fold="1" page="1" pageScale="1" pageWidth="1600" pageHeight="900" math="0" shadow="0">
      <root>
        <mxCell id="0" />
        <mxCell id="1" parent="0" />
        <mxCell id="SeJgElNO_T1xuarIbcUI-4" value="" style="edgeStyle=orthogonalEdgeStyle;rounded=0;orthogonalLoop=1;jettySize=auto;html=1;" edge="1" parent="1" source="SeJgElNO_T1xuarIbcUI-1">
          <mxGeometry relative="1" as="geometry">
            <mxPoint x="650" y="328" as="targetPoint" />
          </mxGeometry>
        </mxCell>
        <mxCell id="SeJgElNO_T1xuarIbcUI-1" value="&lt;div style=&quot;text-align: left;&quot;&gt;&lt;span style=&quot;background-color: initial;&quot;&gt;1. User&lt;/span&gt;&lt;/div&gt;&lt;div style=&quot;text-align: left;&quot;&gt;&lt;span style=&quot;background-color: initial;&quot;&gt;2. Practitioner&lt;/span&gt;&lt;/div&gt;&lt;div style=&quot;text-align: left;&quot;&gt;&lt;span style=&quot;background-color: initial;&quot;&gt;3.&amp;nbsp; Organization&lt;/span&gt;&lt;/div&gt;" style="rounded=0;whiteSpace=wrap;html=1;" vertex="1" parent="1">
          <mxGeometry x="325" y="268" width="190" height="120" as="geometry" />
        </mxCell>
        <mxCell id="SeJgElNO_T1xuarIbcUI-2" value="Sender" style="text;html=1;align=center;verticalAlign=middle;resizable=0;points=[];autosize=1;strokeColor=none;fillColor=none;" vertex="1" parent="1">
          <mxGeometry x="390" y="238" width="60" height="30" as="geometry" />
        </mxCell>
        <mxCell id="SeJgElNO_T1xuarIbcUI-10" value="&lt;div style=&quot;border-color: var(--border-color); text-align: left;&quot;&gt;1. User&lt;/div&gt;&lt;div style=&quot;border-color: var(--border-color); text-align: left;&quot;&gt;&lt;span style=&quot;border-color: var(--border-color); background-color: initial;&quot;&gt;2. Practitioner&lt;/span&gt;&lt;/div&gt;&lt;div style=&quot;border-color: var(--border-color); text-align: left;&quot;&gt;&lt;span style=&quot;border-color: var(--border-color); background-color: initial;&quot;&gt;3.&amp;nbsp; Organization&lt;/span&gt;&lt;/div&gt;" style="rounded=0;whiteSpace=wrap;html=1;" vertex="1" parent="1">
          <mxGeometry x="920" y="276.5" width="163" height="99" as="geometry" />
        </mxCell>
        <mxCell id="SeJgElNO_T1xuarIbcUI-18" style="edgeStyle=orthogonalEdgeStyle;rounded=0;orthogonalLoop=1;jettySize=auto;html=1;exitX=1;exitY=0.5;exitDx=0;exitDy=0;entryX=0;entryY=0.5;entryDx=0;entryDy=0;" edge="1" parent="1" source="SeJgElNO_T1xuarIbcUI-16" target="SeJgElNO_T1xuarIbcUI-10">
          <mxGeometry relative="1" as="geometry">
            <mxPoint x="750" y="328" as="targetPoint" />
          </mxGeometry>
        </mxCell>
        <mxCell id="SeJgElNO_T1xuarIbcUI-22" value="" style="edgeStyle=orthogonalEdgeStyle;rounded=0;orthogonalLoop=1;jettySize=auto;html=1;" edge="1" parent="1" source="SeJgElNO_T1xuarIbcUI-16">
          <mxGeometry relative="1" as="geometry">
            <mxPoint x="705" y="484" as="targetPoint" />
          </mxGeometry>
        </mxCell>
        <mxCell id="SeJgElNO_T1xuarIbcUI-16" value="Currency" style="rhombus;whiteSpace=wrap;html=1;" vertex="1" parent="1">
          <mxGeometry x="650" y="272" width="110" height="108" as="geometry" />
        </mxCell>
        <mxCell id="SeJgElNO_T1xuarIbcUI-19" value="Same" style="text;html=1;align=center;verticalAlign=middle;resizable=0;points=[];autosize=1;strokeColor=none;fillColor=none;" vertex="1" parent="1">
          <mxGeometry x="790" y="300" width="50" height="30" as="geometry" />
        </mxCell>
        <mxCell id="SeJgElNO_T1xuarIbcUI-20" value="Receiver" style="text;html=1;align=center;verticalAlign=middle;resizable=0;points=[];autosize=1;strokeColor=none;fillColor=none;" vertex="1" parent="1">
          <mxGeometry x="966" y="238" width="70" height="30" as="geometry" />
        </mxCell>
        <mxCell id="SeJgElNO_T1xuarIbcUI-23" value="Different" style="text;html=1;align=center;verticalAlign=middle;resizable=0;points=[];autosize=1;strokeColor=none;fillColor=none;" vertex="1" parent="1">
          <mxGeometry x="685" y="418" width="70" height="30" as="geometry" />
        </mxCell>
        <mxCell id="SeJgElNO_T1xuarIbcUI-26" value="" style="edgeStyle=orthogonalEdgeStyle;rounded=0;orthogonalLoop=1;jettySize=auto;html=1;" edge="1" parent="1" source="SeJgElNO_T1xuarIbcUI-24" target="SeJgElNO_T1xuarIbcUI-25">
          <mxGeometry relative="1" as="geometry" />
        </mxCell>
        <mxCell id="SeJgElNO_T1xuarIbcUI-24" value="Converter" style="ellipse;whiteSpace=wrap;html=1;" vertex="1" parent="1">
          <mxGeometry x="670" y="485" width="80" height="80" as="geometry" />
        </mxCell>
        <mxCell id="SeJgElNO_T1xuarIbcUI-25" value="&lt;div style=&quot;border-color: var(--border-color); text-align: left;&quot;&gt;1. User&lt;/div&gt;&lt;div style=&quot;border-color: var(--border-color); text-align: left;&quot;&gt;2. Practitioner&lt;/div&gt;&lt;div style=&quot;border-color: var(--border-color); text-align: left;&quot;&gt;&lt;span style=&quot;border-color: var(--border-color); background-color: initial;&quot;&gt;3.&amp;nbsp; Organization&lt;/span&gt;&lt;/div&gt;" style="whiteSpace=wrap;html=1;" vertex="1" parent="1">
          <mxGeometry x="920" y="465" width="160" height="120" as="geometry" />
        </mxCell>
        <mxCell id="SeJgElNO_T1xuarIbcUI-27" value="Receiver" style="text;html=1;align=center;verticalAlign=middle;resizable=0;points=[];autosize=1;strokeColor=none;fillColor=none;" vertex="1" parent="1">
          <mxGeometry x="965" y="430" width="70" height="30" as="geometry" />
        </mxCell>
      </root>
    </mxGraphModel>
  </diagram>
</mxfile>
